<svg width="24" height="25" viewBox="0 0 24 25" fill="none" xmlns="http://www.w3.org/2000/svg">
<path d="M11.956 10.856V14.307H16.748C16.302 16.5 14.435 17.76 11.956 17.76C9.06851 17.7202 6.74862 15.3682 6.74862 12.4805C6.74862 9.59275 9.06851 7.24072 11.956 7.20098C13.1562 7.19954 14.3194 7.61605 15.246 8.37898L17.846 5.77898C14.8636 3.15705 10.508 2.81981 7.15752 4.95142C3.80707 7.08303 2.26698 11.1712 3.37821 14.9836C4.48943 18.796 7.98491 21.4164 11.956 21.414C16.423 21.414 20.485 18.165 20.485 12.48C20.4781 11.9326 20.411 11.3877 20.285 10.855L11.956 10.856Z" fill="#3282B8"/>
</svg>
