<svg width="24" height="25" viewBox="0 0 24 25" fill="none" xmlns="http://www.w3.org/2000/svg">
<path d="M12.006 19.512H11.986C11.924 19.512 5.721 19.5 4.156 19.075C3.29543 18.8432 2.62335 18.1707 2.392 17.31C2.11058 15.7224 1.97469 14.1123 1.986 12.5C1.97873 10.885 2.11831 9.27271 2.403 7.683C2.64071 6.82151 3.30983 6.14595 4.169 5.9C5.691 5.5 11.723 5.5 11.979 5.5H12C12.063 5.5 18.282 5.512 19.831 5.937C20.6898 6.17001 21.3605 6.8411 21.593 7.7C21.8834 9.29354 22.0197 10.9113 22 12.531C22.007 14.144 21.8671 15.7543 21.582 17.342C21.3477 18.2016 20.6752 18.8726 19.815 19.105C18.295 19.508 12.262 19.512 12.006 19.512ZM10.006 9.505L10.001 15.505L15.213 12.505L10.006 9.505Z" fill="#3282B8"/>
</svg>
